<?xml version="1.0" encoding="utf-8"?>
<!-- Generator: Adobe Illustrator 16.0.0, SVG Export Plug-In . SVG Version: 6.00 Build 0)  -->
<!DOCTYPE svg PUBLIC "-//W3C//DTD SVG 1.1//EN" "http://www.w3.org/Graphics/SVG/1.1/DTD/svg11.dtd">
<svg version="1.1" id="Layer_1" xmlns="http://www.w3.org/2000/svg" xmlns:xlink="http://www.w3.org/1999/xlink" x="0px" y="0px"
	 width="30.455px" height="30.455px" viewBox="0 0 30.455 30.455" enable-background="new 0 0 30.455 30.455" xml:space="preserve">
<g>
	
		<linearGradient id="SVGID_1_" gradientUnits="userSpaceOnUse" x1="-308.4946" y1="255.0439" x2="-308.4198" y2="255.0439" gradientTransform="matrix(167.1538 220.4346 220.4346 -167.1538 -4644.4404 110643.7656)">
		<stop  offset="0" style="stop-color:#345D9E"/>
		<stop  offset="1" style="stop-color:#4F71B7"/>
	</linearGradient>
	<path fill="url(#SVGID_1_)" d="M1.723,10.836v13.332c0,2.523,2.041,4.564,4.564,4.564h17.882c2.523,0,4.563-2.041,4.563-4.564
		V10.883c-3.859,1.009-8.468,1.595-13.416,1.595C10.291,12.478,5.618,11.874,1.723,10.836 M0.005,5.253C0.002,5.323,0,5.395,0,5.467
		v19.521c0,3.014,2.453,5.467,5.467,5.467h19.522c3.013,0,5.466-2.453,5.466-5.467V5.467c0-0.037,0-0.074-0.001-0.111v5.034
		c-0.229,0.071-0.462,0.142-0.697,0.211V24.54c0,2.876-2.341,5.216-5.216,5.216H5.915c-2.875,0-5.215-2.34-5.215-5.216V10.548
		c-0.237-0.069-0.469-0.142-0.698-0.215V5.436C0.002,5.374,0.003,5.313,0.005,5.253"/>
	<path fill-rule="evenodd" clip-rule="evenodd" fill="#7992C4" d="M1.723,6.279c0-2.517,2.041-4.562,4.564-4.562h17.882
		c2.523,0,4.563,2.046,4.563,4.562v17.889c0,2.523-2.04,4.564-4.563,4.564H6.287c-2.523,0-4.564-2.041-4.564-4.564V6.279 M0.7,5.914
		V24.54c0,2.876,2.34,5.216,5.215,5.216h18.626c2.875,0,5.216-2.34,5.216-5.216V5.914c0-2.875-2.341-5.215-5.216-5.215H5.915
		C3.04,0.699,0.7,3.039,0.7,5.914"/>
	<path fill="#D4DEF1" d="M25.239,0H5.159C5.024,0,4.891,0.007,4.758,0.018c-2.62,0.341-4.665,2.545-4.753,5.235
		C0.116,2.338,2.525,0,5.467,0h19.522c2.977,0,5.406,2.394,5.465,5.355V5.345c-0.044-2.685-2.033-4.905-4.617-5.31
		C25.64,0.013,25.44,0,25.239,0"/>
	
		<linearGradient id="SVGID_2_" gradientUnits="userSpaceOnUse" x1="-308.4946" y1="255.0635" x2="-308.4197" y2="255.0635" gradientTransform="matrix(167.1538 220.4346 220.4346 -167.1538 -4644.4404 110643.7656)">
		<stop  offset="0" style="stop-color:#607BB4"/>
		<stop  offset="1" style="stop-color:#6E89C5"/>
	</linearGradient>
	<path fill="url(#SVGID_2_)" d="M24.169,1.717H6.287c-2.523,0-4.564,2.046-4.564,4.562v4.557c3.896,1.038,8.568,1.642,13.594,1.642
		c4.948,0,9.557-0.586,13.416-1.595V6.279C28.732,3.763,26.692,1.717,24.169,1.717 M24.989,0H5.467C2.525,0,0.116,2.338,0.005,5.253
		C0.003,5.313,0.002,5.374,0.002,5.436v4.897c0.229,0.073,0.461,0.146,0.698,0.215V5.914c0-2.875,2.34-5.215,5.215-5.215h18.626
		c2.875,0,5.216,2.34,5.216,5.215v4.687c0.235-0.069,0.468-0.14,0.697-0.211V5.355C30.396,2.394,27.966,0,24.989,0"/>
	<path fill="#86A0CE" d="M24.541,0.699H5.915C3.04,0.699,0.7,3.039,0.7,5.914v4.634c0.335,0.1,0.675,0.195,1.022,0.288V6.279
		c0-2.517,2.041-4.562,4.564-4.562h17.882c2.523,0,4.563,2.046,4.563,4.562v4.604c0.348-0.091,0.689-0.186,1.024-0.282V5.914
		C29.757,3.039,27.416,0.699,24.541,0.699"/>
	<path fill="#FFFFFF" d="M23.399,8.228h1.952v-3.95h-4.232c-2.571,0-4.655,2.083-4.655,4.654v2.363h-3.339v3.951h3.339v12.166h5.194
		V15.246h3.693v-3.951h-3.693V9.97C21.658,9.008,22.438,8.228,23.399,8.228z"/>
</g>
</svg>
